Coordinates
version=1
nRows=10
nColumns=23
inDegrees=yes

Units are S.I. units (second, meters, Newtons, ...)
If the header above contains a line with 'inDegrees', this indicates whether rotational values are in degrees (yes) or radians (no).

endheader
time	pelvis_tilt	pelvis_list	pelvis_rotation	pelvis_tx	pelvis_ty	pelvis_tz	hip_flexion_r	hip_adduction_r	hip_rotation_r	knee_angle_r	knee_angle_r_beta	ankle_angle_r	subtalar_angle_r	mtp_angle_r	hip_flexion_l	hip_adduction_l	hip_rotation_l	knee_angle_l	knee_angle_l_beta	ankle_angle_l	subtalar_angle_l	mtp_angle_l
      7.50000000	      5.95946415	      4.30296929	      7.54147141	      1.91865407	      0.84160476	      0.99754675	     32.96758107	    -13.32652977	     -8.06894496	    105.49806377	      1.84128857	     -8.61667691	    -15.54668191	      0.00000000	     -9.14537560	      6.87055336	      3.48573980	     33.93407955	      0.59226142	     20.77434599	      2.57134499	      0.00000000
      7.50666667	      5.86589618	      3.49190444	      7.37542969	      1.91926358	      0.84455487	      0.99691580	     34.84061047	    -12.18728838	     -8.05532209	    102.26346525	      1.78483417	     -8.33932520	    -16.35843760	      0.00000000	    -12.52234210	      5.71801543	      3.31027436	     30.93000309	      0.53983039	     18.72900656	      2.98462520	      0.00000000
      7.51333333	      5.59951829	      2.60539827	      7.34315295	      1.92012345	      0.84735150	      0.99621175	     36.55320176	    -11.05047936	     -8.27750378	     98.65429793	      1.72184232	     -8.09828110	    -17.36678162	      0.00000000	    -15.64117854	      4.49290865	      3.08230763	     27.88530371	      0.48669036	     16.12342861	      3.35524165	      0.00000000
      7.52000000	      5.11715507	      1.65327734	      7.40049162	      1.92114161	      0.84987603	      0.99549798	     38.20186267	     -9.91311105	     -8.64482711	     94.70077610	      1.65284035	     -7.92073900	    -18.51688748	      0.00000000	    -18.35109041	      3.20508044	      2.70359124	     24.99284105	      0.43620737	     13.06068680	      3.78266722	      0.00000000
      7.52666667	      4.04817159	      0.92247913	      7.26560742	      1.92213506	      0.85137090	      0.99518939	     40.42663266	     -8.87844610	     -8.61603023	     90.64753965	      1.58209803	     -7.66807933	    -19.56806505	      0.00000000	    -20.16298980	      2.25637227	      1.87150483	     22.52099565	      0.39306552	      9.77632418	      4.51548207	      0.00000000
      7.53333333	      3.27495829	     -0.03491066	      7.35834157	      1.92329282	      0.85341862	      0.99472892	     41.85904670	     -7.74604749	     -8.99114862	     86.07673054	      1.50232236	     -7.45840228	    -20.50495427	      0.00000000	    -22.03026502	      0.99606884	      1.10836934	     20.32963927	      0.35481914	      6.11142769	      4.93961547	      0.00000000
      7.54000000	      2.51015673	     -1.04405652	      7.65315884	      1.92447196	      0.85551235	      0.99400909	     42.93265211	     -6.76523840	     -9.57782495	     81.14687683	      1.41628018	     -7.06750460	    -20.88455665	      0.00000000	    -23.48657797	     -0.37801311	      0.27522146	     18.76183189	      0.32745574	      2.36001773	      5.21344987	      0.00000000
      7.54666667	      1.42394664	     -1.80005961	      7.62359858	      1.92555589	      0.85703878	      0.99391301	     44.24673911	     -5.73634747	     -9.58581115	     76.07395772	      1.32774104	     -6.53734885	    -20.81194122	      0.00000000	    -24.23661848	     -1.34567506	     -0.90476817	     17.87205740	      0.31192625	     -1.32244234	      5.35880190	      0.00000000
      7.55333333	      0.36628811	     -2.29630543	      7.47472803	      1.92652272	      0.85845709	      0.99406129	     45.30105888	     -4.82385289	     -9.25069419	     70.81786513	      1.23600492	     -5.87904674	    -20.16337462	      0.00000000	    -24.61712473	     -2.02642223	     -2.28892183	     17.72219625	      0.30931068	     -5.06479055	      5.14728214	      0.00000000
      7.56000000	     -0.56978950	     -2.69467697	      7.20424248	      1.92747481	      0.85999174	      0.99447563	     45.92767481	     -3.83619959	     -8.66521376	     65.30832343	      1.13984527	     -4.98460910	    -18.79096077	      0.00000000	    -24.74105906	     -2.57800375	     -3.73131057	     18.30358436	      0.31945781	     -8.54344296	      4.40212358	      0.00000000
